<svg width="160" height="160" viewBox="0 0 160 160" fill="none" xmlns="http://www.w3.org/2000/svg">
    <path
        d="M143.434 18.2611C139.768 14.0569 135.417 10.7219 130.627 8.44652C125.837 6.17114 120.704 5 115.519 5C110.335 5 105.201 6.17114 100.411 8.44652C95.6215 10.7219 91.2698 14.0569 87.6046 18.2611L79.9981 26.9821L72.3916 18.2611C64.9882 9.77297 54.947 5.0044 44.4771 5.0044C34.0071 5.0044 23.9659 9.77297 16.5626 18.2611C9.15918 26.7492 5 38.2616 5 50.2656C5 62.2696 9.15918 73.7819 16.5626 82.27L24.1691 90.9911L79.9981 155L135.827 90.9911L143.434 82.27C147.1 78.0679 150.009 73.0785 151.994 67.5871C153.979 62.0957 155 56.2097 155 50.2656C155 44.3214 153.979 38.4355 151.994 32.944C150.009 27.4526 147.1 22.4633 143.434 18.2611Z"
        stroke="#1C274C" stroke-width="6" stroke-linecap="round" stroke-linejoin="round" />
</svg>
